<svg xmlns="http://www.w3.org/2000/svg" xmlns:xlink="http://www.w3.org/1999/xlink" version="1.1" id="Layer_1" x="0px" y="0px" style="enable-background:new 0 0 1080 1080;" xml:space="preserve" viewBox="32.53 468.92 1016.99 111.25">
<g>
	<path d="M99.36,502.87H72.09v76.06H59.75v-76.06H32.53v-10.88h66.84V502.87z"/>
	<path d="M115.47,491.99h30.94c18.27,0,29.14,11.36,29.14,26.55c0,12.19-7.01,21.83-18.68,25.39l21.27,34.99h-14.63l-19.5-33.53   h-16.43v33.53h-12.11V491.99z M144.31,534.52c11.85,0,18.9-5.66,18.9-15.75c0-10.58-7.73-15.94-18.9-15.94h-16.73v31.69H144.31z"/>
	<path d="M195.79,491.99h53.6v10.8h-41.33v26.93h36.01v10.76h-36.01v27.64h42.42v10.8h-54.68V491.99z"/>
	<path d="M280.95,578.93h-11.74v-86.94h13.43l43.88,68.41l-0.15-68.41h11.66v86.94h-13.58l-43.66-68L280.95,578.93z"/>
	<path d="M362.88,578.93v-86.94h29.78c27.12,0,41.71,19.17,41.71,43.47c0,24.72-15.08,43.47-41.82,43.47H362.88z M390.26,568.09   c20.63,0,31.77-10.84,31.77-32.59c0-22.35-11.78-32.67-31.32-32.67h-15.53v65.26H390.26z"/>
	<path d="M481.83,542.51v36.42h-12.23v-36.38l-31.21-50.56h14.33l23.29,38.71l24.23-38.71h13.43L481.83,542.51z"/>
	<path d="M516.92,535.42c0-25.73,19.35-44.67,44.29-44.67c24.98,0,44,18.98,44,44.56c0,25.54-18.98,44.86-44.18,44.86   C535.79,580.17,516.92,560.81,516.92,535.42z M592.61,535.46c0-19.35-13.39-33.76-31.58-33.76c-18.19,0-31.62,14.36-31.62,33.76   c0,19.32,13.35,33.79,31.62,33.79C579.3,569.25,592.61,554.74,592.61,535.46z"/>
	<path d="M624.25,491.99h12.3v76.14h40.02v10.8h-52.32V491.99z"/>
	<path d="M707.91,491.99l29.74,59.71l29.37-59.71h13.88l3.49,86.94h-12.49l-2.59-68l-27.57,56.48h-8.78l-28.09-56.48l-2.63,68h-12   l3.45-86.94H707.91z"/>
	<path d="M806.45,476.27c0-4.13,3.23-7.35,7.35-7.35c4.13,0,7.24,3.23,7.24,7.35c0,4.13-3.11,7.31-7.24,7.31   C809.68,483.59,806.45,480.4,806.45,476.27z M807.62,491.99h12.3v86.94h-12.3V491.99z"/>
	<path d="M844.77,491.99h12.3v76.14h40.02v10.8h-52.32V491.99z"/>
	<path d="M912.34,491.99h12.3v76.14h40.02v10.8h-52.32V491.99z"/>
	<path d="M1027.88,555.79h-36.49l-8.21,23.14h-12.64l32.18-86.94h14.21l32.59,86.94h-13.31L1027.88,555.79z M1024.12,545.4   l-14.59-40.51L995.1,545.4H1024.12z"/>
</g>
</svg>